<svg width="1208" height="1766" viewBox="0 0 1208 1766" fill="none" xmlns="http://www.w3.org/2000/svg">
<path opacity="0.2" d="M270.107 -12.7153C261.677 274.744 639.821 177.948 532 86.9998C401 -23.5001 292.605 270.266 484.803 285C742.968 304.791 853.5 525.5 501 654C245.5 771.5 20.111 713.153 149.5 803.001C774.5 1237 -244.5 1041.5 74.9996 1374C184.473 1487.93 58.5163 1452 150.258 1359.5C242 1267 396.199 1511.2 386.999 1624C382.881 1674.5 351.424 1715.86 285.999 1707.5C58.9993 1678.5 41.9066 2037.22 324.999 2004C520.999 1981 555 1866.5 743.5 1843.5C809.501 1835.45 1087.5 1869 1183.5 2156.5" stroke="#FFBE62" stroke-width="50"/>
</svg>
