<svg width="1223" height="2605" viewBox="0 0 1223 2605" fill="none" xmlns="http://www.w3.org/2000/svg">
<path opacity="0.2" d="M864.389 -41.1842C742.391 -9.7161 555.12 125.386 538.116 307.999C521.112 490.613 744.59 497.44 874.395 478.853C948.215 464.989 1069.97 412.997 1155.12 327C1261.55 219.504 1149.29 67.4461 970.461 128.625C791.636 189.803 725.415 442.89 721.223 530C716.625 625.559 913.427 603.137 931.223 703.424C955.059 797.823 901.938 1038.75 503.502 1110.4C5.45669 1199.96 297.21 935.011 466.496 1045C635.781 1154.99 395.366 1238.56 197.192 1197.5C93.9663 1176.11 21.209 1131.16 -68.5067 1237.8C-100.299 1312.53 -136.004 1446.6 35.9961 1519C241.496 1605.5 373.496 1494 466.496 1442C559.496 1390 860.116 1289.5 1059.62 1421C1259.12 1552.5 1191.34 1716 1164.12 1778C1136.9 1840 1082.27 1893.34 985.115 1911.5C832.615 1940 794.116 1915 832.616 1835.5C871.116 1756 1007.62 1706 1114.12 1744.5C1220.62 1783 1239.69 2428.32 492.616 2274C386.116 2252 215.616 2228 92.6156 2413C69.5384 2441.67 30.307 2522.1 57.9997 2614.5" stroke="black" stroke-width="50"/>
</svg>
